<?xml version="1.0" encoding="UTF-8" standalone="no"?>
<!DOCTYPE svg PUBLIC "-//W3C//DTD SVG 1.1//EN" "http://www.w3.org/Graphics/SVG/1.1/DTD/svg11.dtd">
<svg xmlns="http://www.w3.org/2000/svg" version="1.1" viewBox="0.00 0.00 513.00 487.00">
<g stroke-width="2.00" fill="none" stroke-linecap="butt">
<path stroke="#e9bb81" vector-effect="non-scaling-stroke" d="
  M 342.01 194.95
  L 341.89 190.80"
/>
<path stroke="#ffe480" vector-effect="non-scaling-stroke" d="
  M 341.89 190.80
  C 341.85 186.29 344.15 183.50 347.43 180.31"
/>
<path stroke="#e9bb81" vector-effect="non-scaling-stroke" d="
  M 347.43 180.31
  L 353.26 177.30"
/>
<path stroke="#8dbed6" vector-effect="non-scaling-stroke" d="
  M 436.49 142.50
  Q 419.77 140.79 403.95 143.39"
/>
<path stroke="#889aa8" vector-effect="non-scaling-stroke" d="
  M 403.95 143.39
  L 398.03 143.93"
/>
<path stroke="#fd95a5" vector-effect="non-scaling-stroke" d="
  M 381.29 146.23
  L 358.96 149.97
  Q 358.76 150.01 358.72 149.81
  L 358.66 149.52
  Q 358.62 149.32 358.81 149.27
  L 380.93 143.39"
/>
<path stroke="#e99f02" vector-effect="non-scaling-stroke" d="
  M 351.93 98.32
  Q 344.69 101.10 339.76 103.51
  Q 321.89 112.21 274.15 135.97
  Q 269.38 138.35 264.25 141.26
  A 0.90 0.90 0.0 0 0 264.29 142.84
  Q 280.16 150.89 296.78 157.98
  Q 309.31 163.34 347.43 180.31"
/>
<path stroke="#e99f02" vector-effect="non-scaling-stroke" d="
  M 341.89 190.80
  Q 341.94 190.27 341.75 190.21
  A 1.53 1.53 0.0 0 0 340.36 190.43
  C 323.11 203.18 299.44 209.56 278.74 206.53
  C 237.91 200.56 208.23 164.86 212.51 123.16
  A 0.27 0.26 86.3 0 0 212.19 122.87
  Q 211.82 122.96 211.51 123.23
  Q 204.79 129.05 198.83 135.90"
/>
<path stroke="#16587f" vector-effect="non-scaling-stroke" d="
  M 399.70 144.44
  Q 403.65 144.84 403.95 143.39"
/>
<path stroke="#e9bb81" vector-effect="non-scaling-stroke" d="
  M 354.05 100.59
  L 351.93 98.32"
/>
<path stroke="#ffe480" vector-effect="non-scaling-stroke" d="
  M 351.93 98.32
  C 333.53 77.08 306.00 66.41 278.01 67.69
  C 248.14 69.06 221.92 87.77 213.76 116.99
  Q 213.37 118.38 212.16 119.14
  Q 205.75 123.10 199.16 127.85"
/>
<path stroke="#98dcff" vector-effect="non-scaling-stroke" d="
  M 126.09 77.74
  Q 125.09 84.24 126.80 86.14
  C 131.12 90.96 138.34 86.29 141.28 82.02
  Q 144.18 77.82 142.51 73.12
  C 141.49 70.25 137.42 70.72 134.48 70.72"
/>
<path stroke="#98dcff" vector-effect="non-scaling-stroke" d="
  M 153.71 57.69
  C 151.61 60.68 148.89 63.47 151.05 67.34
  C 154.09 72.78 162.88 66.38 164.93 63.25
  C 166.69 60.54 167.08 56.39 163.53 55.06
  Q 162.54 54.69 158.75 54.70"
/>
<path stroke="#fd95a5" vector-effect="non-scaling-stroke" d="
  M 196.20 82.96
  Q 148.24 101.20 117.82 141.64"
/>
<path stroke="#fd95a5" vector-effect="non-scaling-stroke" d="
  M 172.48 179.33
  Q 173.37 172.03 172.64 166.30
  C 171.46 157.01 162.82 149.87 153.29 150.88
  A 0.42 0.41 4.0 0 0 152.93 151.19
  Q 152.80 151.65 153.28 151.95"
/>
<path stroke="#b98f91" vector-effect="non-scaling-stroke" d="
  M 205.30 202.02
  Q 199.27 202.77 193.04 201.65
  Q 191.25 201.33 190.20 200.57
  C 177.99 191.71 165.36 183.42 153.01 174.75
  Q 150.38 172.90 148.14 171.91"
/>
<path stroke="#b98f91" vector-effect="non-scaling-stroke" d="
  M 143.82 168.68
  L 116.39 149.96"
/>
<path stroke="#b98f91" vector-effect="non-scaling-stroke" d="
  M 111.88 147.02
  L 100.78 139.32"
/>
<path stroke="#2177a8" vector-effect="non-scaling-stroke" d="
  M 88.09 145.29
  C 86.39 148.30 82.28 155.16 82.34 158.42
  A 0.69 0.68 -22.5 0 0 83.50 158.90
  Q 84.70 157.77 86.41 158.13
  A 0.30 0.30 0.0 0 1 86.61 158.57
  Q 85.58 160.44 85.75 161.52"
/>
<path stroke="#2177a8" vector-effect="non-scaling-stroke" d="
  M 73.15 262.97
  Q 66.49 264.04 58.66 263.44"
/>
<path stroke="#d9e9f7" vector-effect="non-scaling-stroke" d="
  M 423.70 200.39
  Q 423.56 198.85 424.18 197.28
  Q 424.36 196.83 424.21 196.36
  Q 423.81 195.17 424.67 194.26"
/>
<path stroke="#d9e9f7" vector-effect="non-scaling-stroke" d="
  M 458.15 160.64
  Q 456.93 157.54 452.51 157.19
  C 440.21 156.21 427.64 158.56 415.89 162.23"
/>
<path stroke="#d9e9f7" vector-effect="non-scaling-stroke" d="
  M 396.96 168.06
  Q 382.94 172.96 371.37 181.15
  Q 369.80 182.25 369.04 183.70
  A 0.87 0.87 0.0 0 0 369.38 184.86
  L 376.30 188.83"
/>
<path stroke="#bdbbcb" vector-effect="non-scaling-stroke" d="
  M 376.30 188.83
  Q 371.24 189.90 368.62 193.52
  Q 368.31 193.95 368.47 194.46
  Q 368.72 195.30 369.45 196.24"
/>
<path stroke="#d9e9f7" vector-effect="non-scaling-stroke" d="
  M 361.61 196.37
  L 357.25 194.78"
/>
<path stroke="#97a5c2" vector-effect="non-scaling-stroke" d="
  M 398.44 180.50
  L 376.30 188.83"
/>
<path stroke="#97a5c2" vector-effect="non-scaling-stroke" d="
  M 451.08 170.99
  Q 446.58 171.45 444.25 172.02
  Q 436.81 173.85 419.56 178.52"
/>
<path stroke="#d88598" vector-effect="non-scaling-stroke" d="
  M 109.09 159.65
  L 104.49 167.80"
/>
<path stroke="#fd95a5" vector-effect="non-scaling-stroke" d="
  M 104.49 167.80
  Q 98.30 180.66 94.91 194.46"
/>
<path stroke="#d61a3e" vector-effect="non-scaling-stroke" d="
  M 147.28 194.65
  Q 147.07 193.51 145.77 192.71
  Q 129.60 182.62 109.70 169.30
  Q 106.83 167.38 104.49 167.80"
/>
<path stroke="#98dcff" vector-effect="non-scaling-stroke" d="
  M 173.28 204.66
  Q 173.00 212.15 173.01 219.49
  Q 173.03 226.87 171.92 229.87
  C 169.32 236.88 161.21 242.52 154.00 242.49
  Q 119.78 242.37 85.42 242.44"
/>
<path stroke="#2177a8" vector-effect="non-scaling-stroke" d="
  M 193.04 226.72
  Q 193.69 230.61 196.50 233.36"
/>
<path stroke="#2177a8" vector-effect="non-scaling-stroke" d="
  M 209.72 242.47
  C 213.83 245.87 230.01 244.63 235.38 244.10
  C 238.78 243.77 240.77 242.06 244.40 243.18
  Q 256.51 246.90 261.88 247.82
  Q 289.56 252.59 316.53 244.34"
/>
<path stroke="#98dcff" vector-effect="non-scaling-stroke" d="
  M 316.53 244.34
  Q 316.56 244.49 316.58 244.61
  Q 316.62 244.86 316.88 244.86
  C 328.96 244.71 345.64 241.05 354.33 231.92"
/>
<path stroke="#98dcff" vector-effect="non-scaling-stroke" d="
  M 393.34 239.88
  C 384.32 246.86 374.47 247.44 363.71 244.78
  Q 362.82 244.56 361.79 244.51
  Q 361.25 244.48 361.75 244.67
  Q 363.71 245.40 365.64 246.17
  C 378.57 251.37 399.01 250.32 408.69 238.68"
/>
<path stroke="#889aa8" vector-effect="non-scaling-stroke" d="
  M 350.02 227.95
  Q 343.29 233.64 335.23 237.52
  Q 326.14 241.90 316.53 244.34"
/>
<path stroke="#98dcff" vector-effect="non-scaling-stroke" d="
  M 155.65 211.70
  L 86.22 211.69"
/>
<path stroke="#d61a3e" vector-effect="non-scaling-stroke" d="
  M 118.37 375.28
  C 133.64 392.49 154.23 408.70 177.28 418.96
  C 226.18 440.71 283.52 442.86 333.19 421.31
  C 337.67 419.37 342.28 417.64 346.47 415.31
  Q 360.13 407.72 368.03 402.06
  Q 382.04 392.03 396.66 375.50"
/>
<path stroke="#98dcff" vector-effect="non-scaling-stroke" d="
  M 169.87 54.17
  L 171.01 57.07
  A 1.32 1.32 0.0 0 0 172.72 57.82
  L 184.25 53.30
  A 21.66 1.10 -21.4 0 0 204.01 44.38
  L 202.71 41.06
  A 21.66 1.10 -21.4 0 0 182.14 47.94
  L 170.62 52.46
  A 1.32 1.32 0.0 0 0 169.87 54.17"
/>
<path stroke="#98dcff" vector-effect="non-scaling-stroke" d="
  M 363.8283 68.5410
  A 3.27 3.14 79.1 0 0 366.2934 64.7362
  A 3.27 3.14 79.1 0 0 362.5917 62.1190
  A 3.27 3.14 79.1 0 0 360.1266 65.9238
  A 3.27 3.14 79.1 0 0 363.8283 68.5410"
/>
<path stroke="#98dcff" vector-effect="non-scaling-stroke" d="
  M 67.7170 193.3061
  A 8.53 3.21 100.9 0 0 72.4821 185.5370
  A 8.53 3.21 100.9 0 0 70.9430 176.5539
  A 8.53 3.21 100.9 0 0 66.1779 184.3230
  A 8.53 3.21 100.9 0 0 67.7170 193.3061"
/>
<path stroke="#98dcff" vector-effect="non-scaling-stroke" d="
  M 61.48 220.23
  C 60.96 222.38 61.24 226.57 63.22 227.91
  A 1.83 1.83 0.0 0 0 65.94 227.07
  C 66.99 224.44 67.37 222.29 67.18 219.24
  Q 66.47 208.30 68.15 197.57
  Q 68.20 197.29 67.92 197.29
  L 67.63 197.30
  A 0.70 0.70 0.0 0 0 66.95 197.83
  Q 64.10 209.44 61.48 220.23"
/>
<path stroke="#98dcff" vector-effect="non-scaling-stroke" d="
  M 63.5023 256.1499
  A 9.11 3.50 90.3 0 0 67.0500 247.0583
  A 9.11 3.50 90.3 0 0 63.5977 237.9301
  A 9.11 3.50 90.3 0 0 60.0500 247.0217
  A 9.11 3.50 90.3 0 0 63.5023 256.1499"
/>
<path stroke="#889aa8" vector-effect="non-scaling-stroke" d="
  M 414.74 166.01
  Q 412.40 166.82 408.84 165.97"
/>
<path stroke="#889aa8" vector-effect="non-scaling-stroke" d="
  M 404.04 167.26
  L 400.39 167.97"
/>
<path stroke="#fd95a5" vector-effect="non-scaling-stroke" d="
  M 255.7607 404.7990
  A 9.61 8.85 85.4 0 0 263.8115 394.5102
  A 9.61 8.85 85.4 0 0 254.2193 385.6410
  A 9.61 8.85 85.4 0 0 246.1685 395.9298
  A 9.61 8.85 85.4 0 0 255.7607 404.7990"
/>
<path stroke="#fd95a5" vector-effect="non-scaling-stroke" d="
  M 287.52 398.19
  Q 289.45 398.61 287.74 399.61
  C 280.34 403.92 280.46 385.46 287.88 391.49
  A 1.07 1.04 57.5 0 0 288.77 391.70
  Q 290.39 391.36 291.44 390.05
  A 1.96 1.96 0.0 0 0 290.83 387.08
  C 278.66 380.73 273.19 397.27 280.97 403.31
  C 283.92 405.60 291.84 405.15 292.70 400.97
  Q 293.24 398.36 293.07 394.91
  A 0.57 0.55 90.0 0 0 292.55 394.38
  L 285.74 393.94
  A 0.51 0.51 0.0 0 0 285.20 394.48
  L 285.38 397.65
  A 0.92 0.92 0.0 0 0 286.60 398.46
  Q 287.43 398.17 287.52 398.19"
/>
<path stroke="#fd95a5" vector-effect="non-scaling-stroke" d="
  M 177.09 386.24
  A 0.57 0.57 0.0 0 0 176.54 386.64
  L 173.41 396.49
  A 0.57 0.57 0.0 0 1 172.33 396.52
  L 168.59 386.46
  A 0.57 0.57 0.0 0 0 168.08 386.09
  L 164.42 385.98
  A 0.57 0.57 0.0 0 0 163.87 386.76
  L 170.58 404.20
  A 0.57 0.57 0.0 0 0 171.13 404.57
  L 174.67 404.45
  A 0.57 0.57 0.0 0 0 175.18 404.08
  L 181.43 387.01
  A 0.57 0.57 0.0 0 0 180.89 386.24
  L 177.09 386.24"
/>
<path stroke="#fd95a5" vector-effect="non-scaling-stroke" d="
  M 234.80 397.84
  A 0.59 0.59 0.0 0 1 235.39 397.26
  L 239.12 397.28
  A 0.59 0.59 0.0 0 0 239.72 396.67
  L 239.60 393.57
  A 0.59 0.59 0.0 0 0 239.02 393.01
  L 235.33 392.98
  A 0.59 0.59 0.0 0 1 234.74 392.38
  L 234.78 390.90
  A 0.59 0.59 0.0 0 1 235.36 390.33
  L 240.37 390.31
  A 0.59 0.59 0.0 0 0 240.96 389.75
  L 241.11 386.68
  A 0.59 0.59 0.0 0 0 240.51 386.06
  L 230.56 386.23
  A 0.59 0.59 0.0 0 0 229.98 386.82
  L 229.97 403.90
  A 0.59 0.59 0.0 0 0 230.55 404.49
  L 240.50 404.64
  A 0.59 0.59 0.0 0 0 241.10 404.05
  L 241.07 400.94
  A 0.59 0.59 0.0 0 0 240.47 400.35
  L 235.35 400.45
  A 0.59 0.59 0.0 0 1 234.75 399.85
  L 234.80 397.84"
/>
<path stroke="#fd95a5" vector-effect="non-scaling-stroke" d="
  M 310.23 402.25
  L 310.53 403.72
  Q 310.78 404.90 311.97 404.77
  L 314.51 404.50
  Q 315.55 404.39 315.31 403.37
  C 314.03 397.82 310.80 391.86 308.68 386.48
  Q 308.46 385.92 307.87 385.96
  L 304.70 386.12
  A 0.82 0.81 -80.9 0 0 303.99 386.64
  L 297.44 403.92
  Q 297.23 404.47 297.83 404.52
  L 301.32 404.78
  A 0.95 0.94 -75.8 0 0 302.27 404.21
  L 302.99 402.50
  Q 303.20 401.99 303.75 401.97
  L 309.50 401.69
  Q 310.10 401.66 310.23 402.25"
/>
<path stroke="#fd95a5" vector-effect="non-scaling-stroke" d="
  M 335.59 395.93
  Q 336.21 395.91 336.28 396.75
  Q 336.58 400.46 336.55 403.59
  A 1.05 1.05 0.0 0 0 337.64 404.65
  L 340.46 404.53
  Q 341.41 404.49 341.35 403.54
  L 340.32 386.39
  Q 340.30 385.98 339.88 386.00
  L 336.22 386.21
  A 1.04 1.02 12.5 0 0 335.40 386.72
  L 331.61 393.47
  A 0.52 0.52 0.0 0 1 330.69 393.45
  L 327.30 386.80
  Q 327.02 386.25 326.41 386.22
  L 322.11 386.03
  Q 321.73 386.01 321.71 386.39
  L 320.71 403.73
  Q 320.66 404.55 321.48 404.56
  L 324.71 404.56
  A 0.83 0.83 0.0 0 0 325.55 403.77
  Q 325.70 400.26 326.02 396.76
  A 0.12 0.06 73.2 0 1 326.03 396.71
  Q 326.67 395.37 327.29 396.44
  Q 328.63 398.72 330.28 401.28
  A 1.06 1.06 0.0 0 0 332.07 401.26
  L 335.19 396.16
  A 0.48 0.46 -73.7 0 1 335.59 395.93"
/>
<path stroke="#fd95a5" vector-effect="non-scaling-stroke" d="
  M 190.6198 386.7521
  A 0.47 0.47 0.0 0 0 190.1482 386.2837
  L 186.5282 386.2964
  A 0.47 0.47 0.0 0 0 186.0598 386.7680
  L 186.1202 404.0679
  A 0.47 0.47 0.0 0 0 186.5918 404.5363
  L 190.2118 404.5236
  A 0.47 0.47 0.0 0 0 190.6802 404.0520
  L 190.6198 386.7521"
/>
<path stroke="#fd95a5" vector-effect="non-scaling-stroke" d="
  M 201.9750 386.8056
  A 0.48 0.48 0.0 0 0 201.4941 386.3265
  L 197.4541 386.3335
  A 0.48 0.48 0.0 0 0 196.9750 386.8144
  L 197.0050 404.0344
  A 0.48 0.48 0.0 0 0 197.4859 404.5135
  L 201.5259 404.5065
  A 0.48 0.48 0.0 0 0 202.0050 404.0256
  L 201.9750 386.8056"
/>
<path stroke="#fd95a5" vector-effect="non-scaling-stroke" d="
  M 208.76 386.95
  L 208.70 403.79
  A 0.78 0.78 0.0 0 0 209.48 404.58
  L 216.37 404.60
  A 8.01 7.99 0.2 0 0 224.41 396.64
  L 224.41 394.22
  A 8.01 7.99 0.2 0 0 216.43 386.20
  L 209.54 386.18
  A 0.78 0.78 0.0 0 0 208.76 386.95"
/>
<path stroke="#fd95a5" vector-effect="non-scaling-stroke" d="
  M 352.66 400.36
  A 0.58 0.58 0.0 0 1 352.08 399.77
  L 352.10 397.82
  A 0.58 0.58 0.0 0 1 352.69 397.24
  L 356.66 397.28
  A 0.58 0.58 0.0 0 0 357.24 396.73
  L 357.41 393.61
  A 0.58 0.58 0.0 0 0 356.84 393.00
  L 352.63 392.93
  A 0.58 0.58 0.0 0 1 352.06 392.35
  L 352.06 390.87
  A 0.58 0.58 0.0 0 1 352.65 390.29
  L 357.94 390.35
  A 0.58 0.58 0.0 0 0 358.52 389.81
  L 358.69 386.82
  A 0.58 0.58 0.0 0 0 358.11 386.21
  L 348.07 386.23
  A 0.58 0.58 0.0 0 0 347.49 386.82
  L 347.71 403.92
  A 0.58 0.58 0.0 0 0 348.29 404.49
  L 357.92 404.57
  A 0.58 0.58 0.0 0 0 358.50 403.98
  L 358.48 400.95
  A 0.58 0.58 0.0 0 0 357.90 400.38
  L 352.66 400.36"
/>
<path stroke="#fd95a5" vector-effect="non-scaling-stroke" d="
  M 255.2496 400.2781
  A 5.14 4.03 86.1 0 0 258.9207 394.8759
  A 5.14 4.03 86.1 0 0 254.5504 390.0219
  A 5.14 4.03 86.1 0 0 250.8793 395.4241
  A 5.14 4.03 86.1 0 0 255.2496 400.2781"
/>
<path stroke="#d88598" vector-effect="non-scaling-stroke" d="
  M 305.49 398.18
  L 307.31 398.24
  A 0.49 0.49 0.0 0 0 307.81 397.76
  L 307.82 397.61
  A 3.44 1.26 -88.3 0 0 306.66 394.14
  L 306.38 394.13
  A 3.44 1.26 -88.3 0 0 305.02 397.53
  L 305.01 397.68
  A 0.49 0.49 0.0 0 0 305.49 398.18"
/>
<path stroke="#fd95a5" vector-effect="non-scaling-stroke" d="
  M 213.49 391.01
  L 213.45 399.55
  A 0.71 0.71 0.0 0 0 214.15 400.27
  L 215.50 400.27
  A 4.29 4.24 -89.7 0 0 219.77 396.01
  L 219.77 394.63
  A 4.29 4.24 -89.7 0 0 215.56 390.31
  L 214.21 390.31
  A 0.71 0.71 0.0 0 0 213.49 391.01"
/>
</g>
<path fill="#ffffff" d="
  M 342.01 194.95
  L 341.89 190.80
  C 341.85 186.29 344.15 183.50 347.43 180.31
  L 353.26 177.30
  L 353.40 177.55
  Q 353.53 177.78 353.36 177.99
  C 348.92 183.63 347.23 187.40 349.49 194.68
  Q 351.83 202.17 352.62 210.00
  C 353.13 215.11 361.37 219.46 365.67 220.34
  C 369.73 221.17 373.80 222.14 377.84 222.43
  Q 404.01 224.36 430.10 216.30
  C 446.23 211.31 460.45 204.01 470.98 190.99
  C 473.89 187.39 474.04 182.47 473.28 176.77
  Q 471.38 162.30 469.80 156.98
  C 466.73 146.66 450.74 143.97 442.00 142.29
  Q 439.97 141.90 436.49 142.50
  Q 419.77 140.79 403.95 143.39
  L 398.03 143.93
  L 381.29 146.23
  L 358.96 149.97
  Q 358.76 150.01 358.72 149.81
  L 358.66 149.52
  Q 358.62 149.32 358.81 149.27
  L 380.93 143.39
  Q 406.11 137.61 431.68 135.15
  C 438.47 134.50 444.50 134.65 450.93 135.56
  A 0.56 0.56 0.0 0 0 451.51 134.76
  Q 439.19 109.28 420.92 87.64
  A 0.40 0.39 -37.5 0 1 421.00 87.06
  L 421.46 86.74
  Q 422.23 86.21 421.30 86.29
  C 417.17 86.67 409.11 92.29 405.53 94.72
  A 0.65 0.64 -40.3 0 0 405.44 95.71
  L 407.10 97.32
  Q 407.67 97.87 406.90 98.04
  Q 394.98 100.67 384.03 106.06
  Q 383.54 106.30 383.54 105.76
  L 383.54 95.51
  Q 383.54 94.96 384.05 94.73
  Q 387.37 93.25 389.50 92.59
  Q 403.34 88.25 417.18 84.75
  A 0.55 0.55 0.0 0 0 417.45 83.85
  C 371.51 33.58 303.59 9.03 236.00 15.56
  Q 220.48 17.05 201.81 21.88
  Q 173.32 29.23 147.79 43.83
  C 98.27 72.15 61.38 121.84 47.46 177.03
  Q 47.14 178.29 46.35 182.52
  C 45.88 185.00 45.08 187.57 44.68 189.85
  Q 37.96 228.36 44.34 266.99
  Q 44.55 268.28 44.51 269.64
  Q 44.49 270.11 44.07 270.32
  Q 36.52 274.10 33.71 281.28
  Q 32.25 285.01 32.26 293.39
  Q 32.33 324.83 32.46 356.25
  C 32.51 370.37 46.63 382.38 60.29 380.96
  C 65.11 380.46 69.81 377.35 74.92 377.06
  C 78.24 376.87 86.26 377.62 88.60 380.39
  Q 90.56 382.70 92.49 385.04
  Q 123.05 422.02 166.95 441.50
  Q 196.32 454.54 232.63 459.35
  C 258.31 462.75 285.42 460.47 310.47 454.40
  Q 369.27 440.17 411.51 396.48
  Q 419.51 388.22 425.16 380.42
  C 427.45 377.26 438.28 376.72 441.00 377.23
  C 445.57 378.08 450.74 381.69 457.13 381.04
  C 469.36 379.81 480.73 368.63 480.74 355.82
  Q 480.75 320.78 480.74 285.75
  C 480.74 279.27 475.01 273.01 469.64 270.08
  Q 469.17 269.83 469.27 269.31
  L 475.03 239.25
  Q 475.13 238.77 475.58 238.96
  C 477.53 239.76 479.11 241.45 481.31 241.05
  Q 482.00 240.93 481.91 241.62
  L 479.02 265.01
  Q 478.91 265.87 479.57 266.41
  Q 490.24 275.24 490.32 289.25
  Q 490.48 317.66 490.44 346.07
  Q 490.43 357.71 488.93 363.04
  C 485.86 374.00 477.09 384.67 465.54 388.20
  C 460.33 389.80 454.33 391.19 449.51 389.45
  Q 446.72 388.44 443.94 387.45
  C 440.43 386.20 436.91 386.36 433.19 385.62
  Q 432.69 385.52 432.38 385.91
  Q 382.34 449.15 304.50 465.01
  Q 245.81 476.96 188.75 459.27
  C 146.64 446.21 108.41 420.81 81.48 385.74
  Q 81.19 385.35 80.71 385.46
  C 77.00 386.37 73.35 386.08 69.85 387.48
  C 65.92 389.04 62.33 390.47 58.00 390.16
  C 41.58 389.02 28.05 378.38 23.99 362.51
  Q 22.78 357.79 22.77 347.38
  Q 22.72 318.94 22.76 290.50
  Q 22.77 275.19 34.38 265.69
  A 1.01 1.00 68.2 0 0 34.74 264.84
  C 34.40 259.95 33.23 254.63 32.94 250.35
  Q 31.48 228.53 32.96 206.73
  C 33.21 203.03 34.08 198.42 34.63 193.87
  Q 35.41 187.32 38.22 176.05
  C 53.71 113.84 96.18 59.29 153.57 30.34
  C 211.44 1.15 278.41 -2.97 338.76 19.98
  Q 409.77 46.99 449.58 112.25
  Q 456.86 124.19 465.14 142.55
  Q 465.35 143.02 465.80 143.28
  C 467.93 144.50 470.04 145.70 471.75 147.33
  C 479.46 154.71 480.20 166.66 480.38 176.50
  Q 480.42 178.12 480.15 179.22
  A 0.45 0.45 0.0 0 0 480.91 179.65
  Q 486.36 174.25 488.81 166.98
  Q 488.83 166.93 488.86 166.93
  L 488.86 166.94
  Q 489.05 166.98 489.02 167.16
  C 488.44 171.06 488.00 175.11 486.73 178.69
  C 478.08 203.24 452.74 217.68 429.05 223.98
  Q 411.10 228.75 392.51 229.37
  Q 380.12 229.78 367.88 227.81
  C 357.56 226.16 346.90 221.56 344.92 209.97
  Q 344.47 207.33 344.03 204.68
  C 343.56 201.83 342.23 198.39 342.01 194.95
  Z"
/>
<path fill="#31b9ff" d="
  M 126.09 77.74
  Q 125.09 84.24 126.80 86.14
  C 131.12 90.96 138.34 86.29 141.28 82.02
  Q 144.18 77.82 142.51 73.12
  C 141.49 70.25 137.42 70.72 134.48 70.72
  Q 143.51 63.30 153.71 57.69
  C 151.61 60.68 148.89 63.47 151.05 67.34
  C 154.09 72.78 162.88 66.38 164.93 63.25
  C 166.69 60.54 167.08 56.39 163.53 55.06
  Q 162.54 54.69 158.75 54.70
  Q 165.01 50.64 171.77 47.58
  C 189.21 39.69 207.34 34.25 226.22 31.01
  Q 252.10 26.57 278.26 29.43
  Q 342.73 36.47 391.13 79.10
  Q 391.53 79.46 391.71 79.71
  A 0.55 0.55 0.0 0 1 391.40 80.54
  L 369.45 86.67
  A 1.00 1.00 0.0 0 1 368.29 86.16
  C 364.81 79.34 358.39 72.69 353.29 66.96
  Q 346.23 59.03 334.64 51.62
  Q 303.96 32.03 267.49 36.68
  Q 254.37 38.35 242.24 43.38
  C 237.21 45.46 231.62 48.79 226.36 51.74
  Q 223.25 53.49 219.74 54.37
  Q 208.01 57.29 202.01 59.19
  C 162.20 71.77 126.08 96.45 102.40 130.84
  A 0.52 0.51 34.5 0 1 101.68 130.97
  L 88.04 121.59
  Q 87.56 121.26 87.88 120.78
  Q 103.65 96.63 126.09 77.74
  Z
  M 169.87 54.17
  L 171.01 57.07
  A 1.32 1.32 0.0 0 0 172.72 57.82
  L 184.25 53.30
  A 21.66 1.10 -21.4 0 0 204.01 44.38
  L 202.71 41.06
  A 21.66 1.10 -21.4 0 0 182.14 47.94
  L 170.62 52.46
  A 1.32 1.32 0.0 0 0 169.87 54.17
  Z
  M 363.8283 68.5410
  A 3.27 3.14 79.1 0 0 366.2934 64.7362
  A 3.27 3.14 79.1 0 0 362.5917 62.1190
  A 3.27 3.14 79.1 0 0 360.1266 65.9238
  A 3.27 3.14 79.1 0 0 363.8283 68.5410
  Z"
/>
<path fill="#ffffff" d="
  M 169.87 54.17
  A 1.32 1.32 0.0 0 1 170.62 52.46
  L 182.14 47.94
  A 21.66 1.10 -21.4 0 1 202.71 41.06
  L 204.01 44.38
  A 21.66 1.10 -21.4 0 1 184.25 53.30
  L 172.72 57.82
  A 1.32 1.32 0.0 0 1 171.01 57.07
  L 169.87 54.17
  Z"
/>
<path fill="#ffffff" d="
  M 354.05 100.59
  L 351.93 98.32
  C 333.53 77.08 306.00 66.41 278.01 67.69
  C 248.14 69.06 221.92 87.77 213.76 116.99
  Q 213.37 118.38 212.16 119.14
  Q 205.75 123.10 199.16 127.85
  Q 202.14 101.78 218.28 81.99
  C 248.09 45.45 301.07 42.26 336.07 73.43
  Q 348.35 84.35 356.25 98.78
  Q 356.52 99.26 356.03 99.52
  L 354.05 100.59
  Z"
/>
<path fill="#ffffff" d="
  M 158.75 54.70
  Q 162.54 54.69 163.53 55.06
  C 167.08 56.39 166.69 60.54 164.93 63.25
  C 162.88 66.38 154.09 72.78 151.05 67.34
  C 148.89 63.47 151.61 60.68 153.71 57.69
  L 158.75 54.70
  Z"
/>
<ellipse fill="#ffffff" cx="0.00" cy="0.00" transform="translate(363.21,65.33) rotate(79.1)" rx="3.27" ry="3.14"/>
<path fill="#ffc800" d="
  M 351.93 98.32
  Q 344.69 101.10 339.76 103.51
  Q 321.89 112.21 274.15 135.97
  Q 269.38 138.35 264.25 141.26
  A 0.90 0.90 0.0 0 0 264.29 142.84
  Q 280.16 150.89 296.78 157.98
  Q 309.31 163.34 347.43 180.31
  C 344.15 183.50 341.85 186.29 341.89 190.80
  Q 341.94 190.27 341.75 190.21
  A 1.53 1.53 0.0 0 0 340.36 190.43
  C 323.11 203.18 299.44 209.56 278.74 206.53
  C 237.91 200.56 208.23 164.86 212.51 123.16
  A 0.27 0.26 86.3 0 0 212.19 122.87
  Q 211.82 122.96 211.51 123.23
  Q 204.79 129.05 198.83 135.90
  L 199.16 127.85
  Q 205.75 123.10 212.16 119.14
  Q 213.37 118.38 213.76 116.99
  C 221.92 87.77 248.14 69.06 278.01 67.69
  C 306.00 66.41 333.53 77.08 351.93 98.32
  Z
  M 298.48 100.73
  A 12.68 12.68 0.0 0 0 285.80 88.05
  A 12.68 12.68 0.0 0 0 273.12 100.73
  A 12.68 12.68 0.0 0 0 285.80 113.41
  A 12.68 12.68 0.0 0 0 298.48 100.73
  Z"
/>
<path fill="#ffffff" d="
  M 134.48 70.72
  C 137.42 70.72 141.49 70.25 142.51 73.12
  Q 144.18 77.82 141.28 82.02
  C 138.34 86.29 131.12 90.96 126.80 86.14
  Q 125.09 84.24 126.09 77.74
  Q 129.73 73.69 134.48 70.72
  Z"
/>
<path fill="#ffffff" d="
  M 196.20 82.96
  Q 148.24 101.20 117.82 141.64
  L 113.19 138.71
  A 0.17 0.17 0.0 0 1 113.14 138.47
  C 133.66 108.03 167.89 85.41 202.14 74.25
  Q 203.25 73.89 202.54 74.81
  L 196.20 82.96
  Z"
/>
<path fill="#fb2a4b" d="
  M 196.20 82.96
  Q 195.11 85.58 194.17 87.15
  Q 182.52 106.49 181.14 128.50
  C 180.18 143.93 181.77 159.79 188.04 174.91
  C 190.65 181.21 194.44 187.54 198.15 193.56
  A 0.94 0.94 0.0 0 1 197.47 194.98
  C 194.90 195.28 193.47 194.08 191.45 192.71
  Q 181.52 185.98 172.48 179.33
  Q 173.37 172.03 172.64 166.30
  C 171.46 157.01 162.82 149.87 153.29 150.88
  A 0.42 0.41 4.0 0 0 152.93 151.19
  Q 152.80 151.65 153.28 151.95
  C 148.18 151.32 140.61 151.03 136.23 153.92
  A 1.16 1.16 0.0 0 1 134.91 153.89
  L 117.82 141.64
  Q 148.24 101.20 196.20 82.96
  Z
  M 155.55 135.24
  A 11.90 11.90 0.0 0 0 143.65 123.34
  A 11.90 11.90 0.0 0 0 131.75 135.24
  A 11.90 11.90 0.0 0 0 143.65 147.14
  A 11.90 11.90 0.0 0 0 155.55 135.24
  Z"
/>
<path fill="#d37603" d="
  M 351.93 98.32
  L 354.05 100.59
  L 270.90 141.52
  Q 269.37 142.27 270.94 142.93
  L 353.26 177.30
  L 347.43 180.31
  Q 309.31 163.34 296.78 157.98
  Q 280.16 150.89 264.29 142.84
  A 0.90 0.90 0.0 0 1 264.25 141.26
  Q 269.38 138.35 274.15 135.97
  Q 321.89 112.21 339.76 103.51
  Q 344.69 101.10 351.93 98.32
  Z"
/>
<path fill="#ffffff" d="
  M 420.86 112.48
  A 0.63 0.62 -28.6 0 0 420.61 113.32
  L 423.75 119.16
  A 0.53 0.53 0.0 0 1 423.29 119.94
  Q 406.08 119.92 389.99 126.00
  Q 389.87 126.05 389.84 125.93
  L 387.14 117.58
  Q 387.05 117.31 387.32 117.23
  Q 409.17 110.89 431.67 107.59
  Q 431.74 107.58 431.76 107.65
  L 431.82 107.90
  Q 431.83 107.95 431.78 107.96
  Q 425.98 109.72 420.86 112.48
  Z"
/>
<path fill="#fb2a4b" d="
  M 380.93 143.39
  L 358.81 149.27
  Q 358.62 149.32 358.66 149.52
  L 358.72 149.81
  Q 358.76 150.01 358.96 149.97
  L 381.29 146.23
  L 382.42 156.23
  A 0.69 0.69 0.0 0 1 382.09 156.90
  L 368.72 164.95
  A 3.69 3.66 -49.1 0 1 365.45 165.20
  L 307.74 141.58
  A 0.27 0.27 0.0 0 1 307.73 141.09
  L 368.99 112.10
  A 0.57 0.56 63.9 0 1 369.74 112.36
  Q 376.97 127.45 380.93 143.39
  Z
  M 367.01 135.54
  A 11.89 11.89 0.0 0 0 355.12 123.65
  A 11.89 11.89 0.0 0 0 343.23 135.54
  A 11.89 11.89 0.0 0 0 355.12 147.43
  A 11.89 11.89 0.0 0 0 367.01 135.54
  Z"
/>
<path fill="#d37603" d="
  M 341.89 190.80
  L 342.01 194.95
  C 322.13 214.60 293.56 225.09 266.10 219.17
  C 226.60 210.66 199.42 175.99 198.83 135.90
  Q 204.79 129.05 211.51 123.23
  Q 211.82 122.96 212.19 122.87
  A 0.27 0.26 86.3 0 1 212.51 123.16
  C 208.23 164.86 237.91 200.56 278.74 206.53
  C 299.44 209.56 323.11 203.18 340.36 190.43
  A 1.53 1.53 0.0 0 1 341.75 190.21
  Q 341.94 190.27 341.89 190.80
  Z"
/>
<path fill="#ffffff" d="
  M 205.30 202.02
  Q 199.27 202.77 193.04 201.65
  Q 191.25 201.33 190.20 200.57
  C 177.99 191.71 165.36 183.42 153.01 174.75
  Q 150.38 172.90 148.14 171.91
  L 143.82 168.68
  L 116.39 149.96
  L 111.88 147.02
  L 100.78 139.32
  L 84.29 128.25
  Q 83.40 127.66 83.95 126.75
  L 84.07 126.53
  A 0.64 0.64 0.0 0 1 84.98 126.33
  L 190.93 198.75
  Q 191.36 199.04 191.87 199.04
  Q 200.06 199.13 205.30 202.02
  Z"
/>
<path fill="#721f22" d="
  M 100.78 139.32
  L 111.88 147.02
  Q 112.80 149.93 116.39 149.96
  L 143.82 168.68
  Q 145.27 172.06 148.14 171.91
  Q 150.38 172.90 153.01 174.75
  C 165.36 183.42 177.99 191.71 190.20 200.57
  Q 191.25 201.33 193.04 201.65
  Q 199.27 202.77 205.30 202.02
  Q 207.75 204.98 210.10 207.67
  C 213.85 211.95 218.73 215.53 223.04 219.42
  C 223.99 220.29 225.08 220.68 226.20 221.27
  Q 227.07 221.72 227.30 222.26
  Q 227.60 222.95 227.04 223.48
  Q 226.41 224.08 227.27 223.98
  L 231.18 223.56
  Q 232.91 223.38 233.36 225.07
  L 233.49 225.53
  A 1.23 1.23 0.0 0 1 232.24 227.07
  Q 224.50 226.64 217.32 226.87
  Q 213.08 227.01 210.31 226.08
  C 202.91 223.61 198.68 218.19 193.82 212.76
  C 190.69 209.26 187.62 204.59 182.85 201.32
  Q 176.45 196.93 176.40 196.89
  Q 166.17 189.04 155.44 181.91
  C 154.46 181.26 153.57 180.20 152.49 179.48
  Q 144.54 174.15 136.57 168.85
  C 129.50 164.13 120.39 156.62 112.42 152.34
  Q 105.73 148.74 101.36 144.84
  Q 100.22 143.82 98.26 142.69
  C 96.69 141.78 95.56 140.52 94.09 139.69
  Q 88.16 136.35 82.29 132.73
  Q 80.94 131.89 81.71 130.51
  L 82.24 129.55
  Q 83.00 128.18 84.15 129.24
  C 88.02 132.78 92.23 134.82 96.25 137.71
  Q 97.36 138.50 100.78 139.32
  Z"
/>
<path fill="#31b9ff" d="
  M 88.09 145.29
  C 86.39 148.30 82.28 155.16 82.34 158.42
  A 0.69 0.68 -22.5 0 0 83.50 158.90
  Q 84.70 157.77 86.41 158.13
  A 0.30 0.30 0.0 0 1 86.61 158.57
  Q 85.58 160.44 85.75 161.52
  C 80.97 172.98 76.81 184.17 74.72 196.01
  Q 69.05 228.06 73.15 262.97
  Q 66.49 264.04 58.66 263.44
  Q 57.05 254.69 56.07 238.50
  C 54.84 218.22 57.26 198.01 62.26 178.38
  C 65.73 164.78 71.08 151.81 77.34 139.16
  A 0.86 0.86 0.0 0 1 78.59 138.83
  L 88.09 145.29
  Z
  M 74.4722 171.3287
  A 6.49 6.21 102.8 0 0 81.9657 166.3758
  A 6.49 6.21 102.8 0 0 77.3478 158.6713
  A 6.49 6.21 102.8 0 0 69.8543 163.6242
  A 6.49 6.21 102.8 0 0 74.4722 171.3287
  Z
  M 67.7170 193.3061
  A 8.53 3.21 100.9 0 0 72.4821 185.5370
  A 8.53 3.21 100.9 0 0 70.9430 176.5539
  A 8.53 3.21 100.9 0 0 66.1779 184.3230
  A 8.53 3.21 100.9 0 0 67.7170 193.3061
  Z
  M 61.48 220.23
  C 60.96 222.38 61.24 226.57 63.22 227.91
  A 1.83 1.83 0.0 0 0 65.94 227.07
  C 66.99 224.44 67.37 222.29 67.18 219.24
  Q 66.47 208.30 68.15 197.57
  Q 68.20 197.29 67.92 197.29
  L 67.63 197.30
  A 0.70 0.70 0.0 0 0 66.95 197.83
  Q 64.10 209.44 61.48 220.23
  Z
  M 63.5023 256.1499
  A 9.11 3.50 90.3 0 0 67.0500 247.0583
  A 9.11 3.50 90.3 0 0 63.5977 237.9301
  A 9.11 3.50 90.3 0 0 60.0500 247.0217
  A 9.11 3.50 90.3 0 0 63.5023 256.1499
  Z"
/>
<path fill="#1a7cad" d="
  M 436.49 142.50
  Q 427.11 143.85 418.10 144.88
  Q 411.80 145.60 406.58 147.11
  Q 400.82 148.78 395.44 150.55
  Q 394.46 150.88 394.41 149.85
  L 394.25 147.02
  Q 394.19 145.88 395.24 145.44
  Q 397.66 144.42 399.70 144.44
  Q 403.65 144.84 403.95 143.39
  Q 419.77 140.79 436.49 142.50
  Z"
/>
<path fill="#113451" d="
  M 403.95 143.39
  Q 403.65 144.84 399.70 144.44
  Q 400.79 144.44 401.50 144.19
  Q 402.21 143.94 401.46 143.94
  L 398.03 143.93
  L 403.95 143.39
  Z"
/>
<path fill="#113451" d="
  M 88.09 145.29
  L 91.32 147.03
  A 1.66 1.66 0.0 0 1 92.01 149.24
  L 85.75 161.52
  Q 85.58 160.44 86.61 158.57
  A 0.30 0.30 0.0 0 0 86.41 158.13
  Q 84.70 157.77 83.50 158.90
  A 0.69 0.68 -22.5 0 1 82.34 158.42
  C 82.28 155.16 86.39 148.30 88.09 145.29
  Z"
/>
<path fill="#ffffff" d="
  M 423.70 200.39
  Q 423.56 198.85 424.18 197.28
  Q 424.36 196.83 424.21 196.36
  Q 423.81 195.17 424.67 194.26
  C 436.07 190.01 462.93 176.43 458.15 160.64
  Q 456.93 157.54 452.51 157.19
  C 440.21 156.21 427.64 158.56 415.89 162.23
  Q 409.72 158.99 403.63 161.88
  Q 399.38 163.89 396.96 168.06
  Q 382.94 172.96 371.37 181.15
  Q 369.80 182.25 369.04 183.70
  A 0.87 0.87 0.0 0 0 369.38 184.86
  L 376.30 188.83
  Q 371.24 189.90 368.62 193.52
  Q 368.31 193.95 368.47 194.46
  Q 368.72 195.30 369.45 196.24
  Q 365.69 195.67 361.61 196.37
  L 357.25 194.78
  C 353.05 186.70 361.67 178.50 367.53 174.11
  Q 389.69 157.48 418.26 152.01
  C 430.46 149.67 441.36 149.13 452.76 151.83
  C 463.41 154.36 468.20 166.25 462.33 175.51
  C 454.68 187.55 437.41 196.30 423.70 200.39
  Z"
/>
<path fill="#ffffff" d="
  M 172.48 179.33
  L 167.88 175.92
  A 0.97 0.96 20.6 0 1 167.49 175.07
  C 168.15 164.95 165.33 153.20 153.28 151.95
  Q 152.80 151.65 152.93 151.19
  A 0.42 0.41 4.0 0 1 153.29 150.88
  C 162.82 149.87 171.46 157.01 172.64 166.30
  Q 173.37 172.03 172.48 179.33
  Z"
/>
<path fill="#ffffff" d="
  M 109.09 159.65
  L 104.49 167.80
  Q 98.30 180.66 94.91 194.46
  L 89.26 194.45
  A 0.39 0.39 0.0 0 1 88.88 193.97
  Q 93.50 174.22 103.23 156.44
  A 0.59 0.58 30.7 0 1 104.07 156.23
  L 109.09 159.65
  Z"
/>
<path fill="#b3d2ee" d="
  M 458.15 160.64
  Q 455.89 167.83 451.08 170.99
  Q 446.58 171.45 444.25 172.02
  Q 436.81 173.85 419.56 178.52
  Q 425.63 168.69 415.89 162.23
  C 427.64 158.56 440.21 156.21 452.51 157.19
  Q 456.93 157.54 458.15 160.64
  Z"
/>
<path fill="#b00a31" d="
  M 109.09 159.65
  Q 116.29 164.18 123.24 168.96
  C 133.63 176.09 143.49 182.39 153.41 189.39
  C 155.26 190.70 157.12 190.85 157.01 193.79
  Q 156.99 194.36 156.42 194.38
  L 147.28 194.65
  Q 147.07 193.51 145.77 192.71
  Q 129.60 182.62 109.70 169.30
  Q 106.83 167.38 104.49 167.80
  L 109.09 159.65
  Z"
/>
<path fill="#ffffff" d="
  M 148.81 162.87
  L 153.76 163.68
  A 0.36 0.36 0.0 0 1 154.04 163.89
  L 155.28 166.80
  A 0.36 0.36 0.0 0 1 154.77 167.25
  L 148.56 163.54
  A 0.36 0.36 0.0 0 1 148.81 162.87
  Z"
/>
<path fill="#ffffff" d="
  M 414.74 166.01
  Q 412.40 166.82 408.84 165.97
  Q 406.79 165.89 404.04 167.26
  L 400.39 167.97
  Q 407.11 159.79 414.74 166.01
  Z"
/>
<path fill="#113451" d="
  M 408.84 165.97
  Q 412.40 166.82 414.74 166.01
  Q 416.12 170.27 414.67 173.57
  A 1.36 1.32 -83.7 0 1 413.72 174.35
  Q 411.14 174.89 408.57 175.52
  C 406.73 175.97 404.68 177.58 402.45 176.94
  A 2.51 2.50 -73.6 0 1 400.75 173.82
  Q 401.53 171.17 400.39 167.97
  L 404.04 167.26
  Q 414.97 167.79 408.84 165.97
  Z"
/>
<path fill="#fb2a4b" d="
  M 147.28 194.65
  L 94.91 194.46
  Q 98.30 180.66 104.49 167.80
  Q 106.83 167.38 109.70 169.30
  Q 129.60 182.62 145.77 192.71
  Q 147.07 193.51 147.28 194.65
  Z"
/>
<path fill="#b3d2ee" d="
  M 396.96 168.06
  Q 393.87 174.96 398.44 180.50
  L 376.30 188.83
  L 369.38 184.86
  A 0.87 0.87 0.0 0 1 369.04 183.70
  Q 369.80 182.25 371.37 181.15
  Q 382.94 172.96 396.96 168.06
  Z"
/>
<path fill="#7a7796" d="
  M 451.08 170.99
  Q 445.09 178.06 437.78 182.32
  Q 406.39 200.57 369.45 196.24
  Q 368.72 195.30 368.47 194.46
  Q 368.31 193.95 368.62 193.52
  Q 371.24 189.90 376.30 188.83
  L 398.44 180.50
  Q 409.08 187.19 419.56 178.52
  Q 436.81 173.85 444.25 172.02
  Q 446.58 171.45 451.08 170.99
  Z"
/>
<ellipse fill="#ffffff" cx="0.00" cy="0.00" transform="translate(69.33,184.93) rotate(100.9)" rx="8.53" ry="3.21"/>
<path fill="#fb2a4b" d="
  M 429.15 205.77
  C 442.40 201.09 455.11 194.47 464.12 183.78
  Q 465.22 182.48 465.25 184.18
  L 465.28 186.12
  Q 465.32 188.02 464.02 189.41
  C 454.12 199.93 443.23 205.23 430.23 209.91
  Q 429.37 210.22 429.12 209.34
  L 428.46 207.10
  A 1.09 1.09 0.0 0 1 429.15 205.77
  Z"
/>
<path fill="#ffffff" d="
  M 490.45 188.43
  C 487.35 196.96 482.73 205.17 476.01 211.45
  C 472.17 215.05 467.04 217.76 462.21 220.35
  Q 462.01 220.45 461.85 220.34
  A 0.30 0.29 -50.4 0 1 461.81 219.88
  Q 465.01 216.88 468.24 213.91
  C 477.56 205.33 485.36 194.79 491.78 183.90
  Q 492.36 182.93 492.15 184.04
  C 491.87 185.56 490.84 187.35 490.45 188.43
  Z"
/>
<path fill="#b3d2ee" d="
  M 424.67 194.26
  Q 423.81 195.17 424.21 196.36
  Q 424.36 196.83 424.18 197.28
  Q 423.56 198.85 423.70 200.39
  C 406.02 206.65 380.99 210.37 363.24 202.69
  Q 358.11 200.47 357.25 194.78
  L 361.61 196.37
  Q 367.05 199.55 372.65 200.41
  C 389.89 203.07 408.32 200.34 424.67 194.26
  Z"
/>
<path fill="#ffffff" d="
  M 63.22 227.91
  C 61.24 226.57 60.96 222.38 61.48 220.23
  Q 64.10 209.44 66.95 197.83
  A 0.70 0.70 0.0 0 1 67.63 197.30
  L 67.92 197.29
  Q 68.20 197.29 68.15 197.57
  Q 66.47 208.30 67.18 219.24
  C 67.37 222.29 66.99 224.44 65.94 227.07
  A 1.83 1.83 0.0 0 1 63.22 227.91
  Z"
/>
<path fill="#ffffff" d="
  M 173.28 204.66
  Q 173.00 212.15 173.01 219.49
  Q 173.03 226.87 171.92 229.87
  C 169.32 236.88 161.21 242.52 154.00 242.49
  Q 119.78 242.37 85.42 242.44
  L 85.43 237.29
  Q 85.43 236.76 85.96 236.76
  Q 120.86 236.73 155.75 236.76
  C 162.71 236.77 167.79 228.84 167.77 222.50
  Q 167.74 211.99 167.73 201.48
  A 0.33 0.33 0.0 0 1 168.24 201.20
  L 173.28 204.66
  Z"
/>
<path fill="#31b9ff" d="
  M 173.28 204.66
  Q 186.87 212.65 193.04 226.72
  Q 193.69 230.61 196.50 233.36
  Q 201.33 240.26 209.72 242.47
  C 213.83 245.87 230.01 244.63 235.38 244.10
  C 238.78 243.77 240.77 242.06 244.40 243.18
  Q 256.51 246.90 261.88 247.82
  Q 289.56 252.59 316.53 244.34
  Q 316.56 244.49 316.58 244.61
  Q 316.62 244.86 316.88 244.86
  C 328.96 244.71 345.64 241.05 354.33 231.92
  C 366.00 239.18 379.81 240.61 393.34 239.88
  C 384.32 246.86 374.47 247.44 363.71 244.78
  Q 362.82 244.56 361.79 244.51
  Q 361.25 244.48 361.75 244.67
  Q 363.71 245.40 365.64 246.17
  C 378.57 251.37 399.01 250.32 408.69 238.68
  Q 411.88 238.58 414.12 238.11
  Q 422.00 236.46 429.80 234.91
  A 0.39 0.39 0.0 0 1 430.26 235.30
  L 429.85 249.55
  A 0.74 0.74 0.0 0 0 430.82 250.27
  Q 435.60 248.73 439.90 246.78
  Q 442.14 245.77 443.82 243.75
  Q 449.29 237.19 454.76 230.65
  Q 455.08 230.27 455.57 230.14
  C 458.93 229.25 462.26 228.48 465.34 226.98
  Q 476.05 221.79 484.57 214.08
  Q 485.51 213.23 485.21 214.46
  Q 482.63 224.93 474.55 231.59
  C 468.54 236.55 459.62 236.96 454.48 242.97
  C 452.31 245.51 450.33 247.78 446.96 248.76
  C 436.59 251.77 425.64 253.64 414.89 254.46
  Q 414.22 254.51 414.64 255.03
  Q 419.41 260.96 426.84 262.80
  A 1.21 1.20 16.7 0 1 427.69 264.37
  L 425.14 271.71
  Q 424.92 272.35 424.24 272.35
  L 89.48 272.41
  Q 88.99 272.41 88.88 271.93
  Q 85.58 257.29 85.42 242.44
  Q 119.78 242.37 154.00 242.49
  C 161.21 242.52 169.32 236.88 171.92 229.87
  Q 173.03 226.87 173.01 219.49
  Q 173.00 212.15 173.28 204.66
  Z
  M 148.93 256.86
  A 8.40 8.40 0.0 0 0 140.53 248.46
  A 8.40 8.40 0.0 0 0 132.13 256.86
  A 8.40 8.40 0.0 0 0 140.53 265.26
  A 8.40 8.40 0.0 0 0 148.93 256.86
  Z
  M 372.9137 255.4545
  A 7.82 7.62 -11.1 0 0 363.7730 249.4825
  A 7.82 7.62 -11.1 0 0 357.5663 258.4655
  A 7.82 7.62 -11.1 0 0 366.7070 264.4375
  A 7.82 7.62 -11.1 0 0 372.9137 255.4545
  Z
  M 188.75 256.86
  A 7.03 7.03 0.0 0 0 181.72 249.83
  A 7.03 7.03 0.0 0 0 174.69 256.86
  A 7.03 7.03 0.0 0 0 181.72 263.89
  A 7.03 7.03 0.0 0 0 188.75 256.86
  Z
  M 321.6889 263.4328
  A 6.94 6.82 104.7 0 0 330.0468 258.4506
  A 6.94 6.82 104.7 0 0 325.2111 250.0072
  A 6.94 6.82 104.7 0 0 316.8532 254.9894
  A 6.94 6.82 104.7 0 0 321.6889 263.4328
  Z
  M 257.77 256.82
  A 6.81 6.81 0.0 0 0 250.96 250.01
  A 6.81 6.81 0.0 0 0 244.15 256.82
  A 6.81 6.81 0.0 0 0 250.96 263.63
  A 6.81 6.81 0.0 0 0 257.77 256.82
  Z"
/>
<path fill="#ffffff" d="
  M 155.65 211.70
  L 86.22 211.69
  L 86.72 207.05
  Q 86.79 206.43 87.42 206.43
  L 155.17 206.38
  A 0.52 0.51 90.0 0 1 155.68 206.90
  L 155.65 211.70
  Z"
/>
<path fill="#fb2a4b" d="
  M 374.50 216.23
  C 369.51 215.57 360.46 213.95 360.48 207.43
  A 0.34 0.34 0.0 0 1 361.02 207.16
  C 365.02 210.13 369.95 211.16 374.66 212.34
  Q 376.07 212.70 376.02 214.15
  L 376.00 214.96
  Q 375.95 216.42 374.50 216.23
  Z"
/>
<path fill="#31b9ff" d="
  M 155.65 211.70
  L 155.62 223.62
  A 1.15 1.14 -89.7 0 1 154.48 224.76
  L 86.20 224.77
  Q 85.32 224.77 85.38 223.89
  L 86.22 211.69
  L 155.65 211.70
  Z"
/>
<path fill="#113451" d="
  M 350.02 227.95
  Q 343.29 233.64 335.23 237.52
  Q 326.14 241.90 316.53 244.34
  Q 289.56 252.59 261.88 247.82
  Q 256.51 246.90 244.40 243.18
  C 240.77 242.06 238.78 243.77 235.38 244.10
  C 230.01 244.63 213.83 245.87 209.72 242.47
  Q 210.24 242.67 210.66 242.60
  Q 211.19 242.51 210.93 242.04
  C 209.00 238.59 205.91 234.87 201.75 234.82
  Q 201.59 234.82 201.55 234.66
  L 201.49 234.31
  A 0.28 0.27 81.4 0 1 201.73 233.98
  C 205.78 233.56 209.70 232.85 213.75 232.85
  Q 220.34 232.85 226.93 232.55
  C 231.65 232.34 239.10 232.80 245.24 231.75
  C 246.32 231.56 248.78 232.25 250.19 232.75
  C 261.96 237.00 272.90 238.06 285.09 238.04
  Q 289.33 238.03 293.38 237.41
  C 299.15 236.53 304.92 235.72 310.45 234.01
  C 322.75 230.21 332.45 225.55 341.83 218.08
  Q 342.65 217.43 343.12 217.21
  A 1.19 1.18 -19.6 0 1 344.75 217.98
  Q 346.27 223.67 350.02 227.95
  Z"
/>
<path fill="#113451" d="
  M 193.04 226.72
  L 196.50 233.36
  Q 193.69 230.61 193.04 226.72
  Z"
/>
<path fill="#ffffff" d="
  M 350.02 227.95
  L 354.33 231.92
  C 345.64 241.05 328.96 244.71 316.88 244.86
  Q 316.62 244.86 316.58 244.61
  Q 316.56 244.49 316.53 244.34
  Q 326.14 241.90 335.23 237.52
  Q 343.29 233.64 350.02 227.95
  Z"
/>
<ellipse fill="#ffffff" cx="0.00" cy="0.00" transform="translate(63.55,247.04) rotate(90.3)" rx="9.11" ry="3.50"/>
<path fill="#ffffff" d="
  M 408.69 238.68
  C 399.01 250.32 378.57 251.37 365.64 246.17
  Q 363.71 245.40 361.75 244.67
  Q 361.25 244.48 361.79 244.51
  Q 362.82 244.56 363.71 244.78
  C 374.47 247.44 384.32 246.86 393.34 239.88
  L 408.69 238.68
  Z"
/>
<path fill="#113451" d="
  M 444.71 266.26
  C 442.82 266.17 437.53 265.30 436.13 264.09
  A 0.43 0.43 0.0 0 1 436.33 263.34
  Q 442.67 262.03 447.20 257.43
  Q 448.16 256.46 447.77 257.77
  L 445.44 265.74
  Q 445.28 266.29 444.71 266.26
  Z"
/>
<path fill="#113451" d="
  M 73.15 262.97
  L 74.29 270.94
  A 1.09 1.09 0.0 0 1 73.21 272.18
  L 61.04 272.19
  A 1.41 1.41 0.0 0 1 59.63 270.96
  L 58.66 263.44
  Q 66.49 264.04 73.15 262.97
  Z"
/>
<path fill="#ffffff" d="
  M 349.69 313.99
  Q 349.69 315.11 350.30 314.17
  Q 358.03 302.40 365.57 290.75
  Q 366.46 289.37 366.37 286.10
  A 0.60 0.60 0.0 0 1 366.97 285.48
  L 377.00 285.49
  Q 377.52 285.49 377.52 286.01
  L 377.51 294.46
  Q 377.51 295.04 377.16 295.50
  Q 369.21 306.08 362.51 317.50
  Q 362.24 317.96 362.48 318.45
  L 377.51 349.59
  A 2.48 2.42 -58.4 0 1 377.75 350.65
  L 377.76 360.75
  Q 377.76 361.25 377.25 361.25
  L 366.73 361.25
  Q 366.13 361.25 366.18 360.66
  C 366.49 356.89 366.68 354.23 365.06 350.64
  Q 360.47 340.44 355.98 330.23
  A 0.63 0.63 0.0 0 0 354.86 330.17
  L 350.25 338.24
  A 4.00 3.97 -30.5 0 0 349.72 340.26
  L 349.77 360.75
  Q 349.77 361.26 349.25 361.26
  L 338.26 361.24
  Q 337.79 361.24 337.79 360.76
  L 337.72 286.00
  Q 337.72 285.47 338.25 285.47
  L 349.24 285.49
  Q 349.73 285.49 349.73 285.99
  L 349.69 313.99
  Z"
/>
<path fill="#ffffff" d="
  M 59.21 349.02
  L 57.35 360.70
  A 0.66 0.66 0.0 0 1 56.70 361.26
  L 45.08 361.25
  A 0.66 0.66 0.0 0 1 44.44 360.45
  L 60.27 286.03
  A 0.66 0.66 0.0 0 1 60.91 285.51
  L 73.57 285.49
  A 0.66 0.66 0.0 0 1 74.21 286.01
  L 90.39 360.45
  A 0.66 0.66 0.0 0 1 89.74 361.25
  L 78.41 361.26
  A 0.66 0.66 0.0 0 1 77.76 360.71
  L 75.69 348.99
  A 0.66 0.66 0.0 0 0 75.04 348.44
  L 59.86 348.46
  A 0.66 0.66 0.0 0 0 59.21 349.02
  Z
  M 61.07 334.68
  A 0.66 0.66 0.0 0 0 61.72 335.46
  L 72.94 335.46
  A 0.66 0.66 0.0 0 0 73.59 334.68
  L 67.98 304.80
  A 0.66 0.66 0.0 0 0 66.68 304.80
  L 61.07 334.68
  Z"
/>
<rect fill="#ffffff" x="95.27" y="285.50" width="11.90" height="75.74" rx="0.49"/>
<rect fill="#ffffff" x="113.51" y="285.49" width="12.06" height="75.76" rx="0.26"/>
<path fill="#ffffff" d="
  M 144.18 337.20
  L 144.28 360.98
  A 0.26 0.26 0.0 0 1 144.02 361.24
  L 132.54 361.26
  Q 132.06 361.26 132.06 360.78
  L 132.09 285.95
  Q 132.09 285.50 132.55 285.50
  L 159.37 285.50
  Q 159.91 285.50 160.25 285.93
  L 169.98 298.41
  Q 170.49 299.07 170.49 299.91
  L 170.49 317.72
  A 2.15 2.12 63.4 0 1 170.08 318.98
  L 163.18 328.44
  Q 162.85 328.89 163.19 329.33
  L 170.21 338.46
  A 1.40 1.38 26.2 0 1 170.51 339.32
  L 170.51 360.75
  Q 170.51 361.26 170.00 361.26
  L 158.77 361.25
  Q 158.17 361.25 158.16 360.64
  L 158.11 341.19
  A 1.46 1.43 -62.7 0 0 157.88 340.44
  C 156.79 338.76 154.98 336.46 152.80 336.59
  C 150.08 336.75 147.35 336.63 144.62 336.74
  Q 144.18 336.76 144.18 337.20
  Z
  M 157.9964 303.9020
  A 0.48 0.48 0.0 0 0 157.5172 303.4212
  L 144.7573 303.3989
  A 0.48 0.48 0.0 0 0 144.2764 303.8780
  L 144.2436 322.6780
  A 0.48 0.48 0.0 0 0 144.7228 323.1588
  L 157.4827 323.1811
  A 0.48 0.48 0.0 0 0 157.9636 322.7020
  L 157.9964 303.9020
  Z"
/>
<path fill="#ffffff" d="
  M 216.91 332.19
  L 217.08 360.91
  A 0.34 0.34 0.0 0 1 216.74 361.25
  L 205.39 361.25
  A 0.34 0.34 0.0 0 1 205.05 360.91
  L 205.00 285.83
  A 0.34 0.34 0.0 0 1 205.34 285.49
  L 216.60 285.47
  A 0.34 0.34 0.0 0 1 216.94 285.81
  L 217.04 319.91
  A 0.34 0.34 0.0 0 0 217.38 320.25
  L 231.01 320.20
  A 0.34 0.34 0.0 0 0 231.35 319.86
  L 231.52 285.83
  A 0.34 0.34 0.0 0 1 231.86 285.49
  L 242.93 285.50
  A 0.34 0.34 0.0 0 1 243.27 285.84
  L 243.26 360.91
  A 0.34 0.34 0.0 0 1 242.92 361.25
  L 231.83 361.25
  A 0.34 0.34 0.0 0 1 231.49 360.91
  L 231.49 332.09
  A 0.34 0.34 0.0 0 0 231.15 331.75
  L 217.25 331.85
  A 0.34 0.34 0.0 0 0 216.91 332.19
  Z"
/>
<path fill="#ffffff" d="
  M 249.60 299.89
  L 259.16 286.01
  A 1.13 1.11 16.7 0 1 260.09 285.52
  L 275.29 285.52
  Q 275.91 285.52 276.28 286.03
  L 286.18 299.75
  A 2.69 2.69 0.0 0 1 286.70 301.34
  Q 286.83 323.66 286.49 346.00
  C 286.44 349.00 278.63 358.14 276.54 360.86
  Q 276.24 361.25 275.74 361.25
  L 259.88 361.24
  Q 259.33 361.24 259.00 360.80
  L 249.75 348.09
  A 2.30 2.27 -63.4 0 1 249.31 346.74
  L 249.39 300.56
  A 1.18 1.16 62.9 0 1 249.60 299.89
  Z
  M 274.2816 305.7211
  A 1.49 1.49 0.0 0 0 272.7942 304.2285
  L 263.0342 304.2115
  A 1.49 1.49 0.0 0 0 261.5416 305.6989
  L 261.4784 341.8789
  A 1.49 1.49 0.0 0 0 262.9658 343.3715
  L 272.7258 343.3885
  A 1.49 1.49 0.0 0 0 274.2184 341.9011
  L 274.2816 305.7211
  Z"
/>
<path fill="#ffffff" d="
  M 317.73 342.81
  L 317.76 335.54
  Q 317.76 335.09 318.21 335.09
  L 330.15 335.21
  Q 330.83 335.22 330.84 335.90
  L 330.87 347.01
  A 2.14 2.11 63.0 0 1 330.48 348.24
  L 321.40 360.91
  A 0.84 0.81 -71.2 0 1 320.74 361.25
  L 304.76 361.25
  A 1.04 1.02 68.8 0 1 303.99 360.90
  C 300.37 356.70 293.11 348.80 293.03 343.91
  Q 292.72 322.84 293.01 301.77
  A 1.41 1.35 -27.5 0 1 293.27 301.00
  L 303.97 286.13
  Q 304.40 285.52 305.15 285.52
  L 320.47 285.52
  Q 320.93 285.52 321.21 285.90
  Q 325.71 292.14 329.74 298.64
  C 331.76 301.90 331.00 307.96 330.80 311.68
  Q 330.77 312.21 330.24 312.22
  L 318.24 312.27
  Q 317.71 312.27 317.71 311.74
  L 317.63 304.79
  Q 317.63 304.21 317.04 304.21
  L 307.87 304.27
  A 2.87 2.86 -0.1 0 0 305.01 307.13
  L 304.98 341.52
  A 1.90 1.90 0.0 0 0 306.89 343.42
  L 317.19 343.35
  Q 317.73 343.35 317.73 342.81
  Z"
/>
<path fill="#ffffff" d="
  M 396.29 344.01
  L 416.79 343.96
  A 0.35 0.35 0.0 0 1 417.14 344.31
  L 417.05 360.89
  A 0.35 0.35 0.0 0 1 416.70 361.24
  L 384.23 361.25
  A 0.35 0.35 0.0 0 1 383.88 360.90
  L 383.84 285.84
  A 0.35 0.35 0.0 0 1 384.19 285.49
  L 416.80 285.50
  A 0.35 0.35 0.0 0 1 417.15 285.85
  L 417.12 302.28
  A 0.35 0.35 0.0 0 1 416.77 302.63
  L 396.20 302.78
  A 0.35 0.35 0.0 0 0 395.85 303.13
  L 395.93 315.43
  A 0.35 0.35 0.0 0 0 396.28 315.78
  L 413.90 315.69
  A 0.35 0.35 0.0 0 1 414.25 316.04
  L 414.25 327.19
  A 0.35 0.35 0.0 0 1 413.90 327.54
  L 396.23 327.60
  A 0.35 0.35 0.0 0 0 395.88 327.95
  L 395.94 343.66
  A 0.35 0.35 0.0 0 0 396.29 344.01
  Z"
/>
<path fill="#ffffff" d="
  M 438.81 307.74
  L 450.02 307.62
  Q 450.51 307.61 450.66 307.15
  C 451.53 304.48 452.30 302.14 452.27 299.20
  Q 452.20 292.59 452.27 285.98
  Q 452.28 285.48 452.77 285.49
  L 463.48 285.50
  Q 463.99 285.50 463.99 286.01
  Q 464.03 296.16 464.11 306.28
  Q 464.12 308.07 463.30 309.53
  C 459.89 315.59 455.85 321.15 452.50 327.04
  A 3.02 3.00 -30.4 0 0 452.11 328.52
  L 452.12 360.88
  A 0.37 0.37 0.0 0 1 451.75 361.25
  L 439.51 361.26
  Q 439.02 361.26 439.02 360.76
  L 439.05 329.54
  Q 439.05 328.15 438.25 327.02
  L 425.36 308.90
  A 2.53 2.53 0.0 0 1 424.89 307.43
  L 424.83 285.95
  Q 424.83 285.48 425.30 285.49
  L 436.20 285.49
  Q 436.66 285.49 436.66 285.94
  C 436.67 293.36 435.75 300.24 438.20 307.31
  Q 438.35 307.74 438.81 307.74
  Z"
/>
<path fill="#b00a31" d="
  M 118.37 375.28
  C 133.64 392.49 154.23 408.70 177.28 418.96
  C 226.18 440.71 283.52 442.86 333.19 421.31
  C 337.67 419.37 342.28 417.64 346.47 415.31
  Q 360.13 407.72 368.03 402.06
  Q 382.04 392.03 396.66 375.50
  L 401.94 375.02
  A 0.99 0.99 0.0 0 1 402.90 376.48
  C 401.65 378.77 399.06 380.26 397.34 382.19
  C 392.48 387.68 386.84 392.49 381.48 397.47
  Q 376.08 402.49 361.44 411.71
  Q 342.04 423.93 320.16 430.79
  Q 316.20 432.03 312.24 433.33
  Q 309.42 434.26 305.65 435.12
  C 295.47 437.44 285.40 439.39 272.50 440.40
  Q 263.35 441.12 244.39 440.43
  Q 239.49 440.25 233.68 439.42
  C 228.90 438.73 224.11 438.28 219.50 437.22
  C 206.70 434.27 195.72 431.34 184.00 426.68
  C 176.98 423.89 169.77 420.09 162.77 416.52
  Q 155.55 412.84 149.16 408.72
  C 135.46 399.90 122.63 388.56 111.84 376.36
  Q 111.47 375.95 111.80 375.51
  Q 112.49 374.57 114.00 374.96
  Q 116.52 375.63 118.37 375.28
  Z"
/>
<path fill="#fb2a4b" d="
  M 396.66 375.50
  Q 382.04 392.03 368.03 402.06
  Q 360.13 407.72 346.47 415.31
  C 342.28 417.64 337.67 419.37 333.19 421.31
  C 283.52 442.86 226.18 440.71 177.28 418.96
  C 154.23 408.70 133.64 392.49 118.37 375.28
  L 396.66 375.50
  Z
  M 255.7607 404.7990
  A 9.61 8.85 85.4 0 0 263.8115 394.5102
  A 9.61 8.85 85.4 0 0 254.2193 385.6410
  A 9.61 8.85 85.4 0 0 246.1685 395.9298
  A 9.61 8.85 85.4 0 0 255.7607 404.7990
  Z
  M 287.52 398.19
  Q 289.45 398.61 287.74 399.61
  C 280.34 403.92 280.46 385.46 287.88 391.49
  A 1.07 1.04 57.5 0 0 288.77 391.70
  Q 290.39 391.36 291.44 390.05
  A 1.96 1.96 0.0 0 0 290.83 387.08
  C 278.66 380.73 273.19 397.27 280.97 403.31
  C 283.92 405.60 291.84 405.15 292.70 400.97
  Q 293.24 398.36 293.07 394.91
  A 0.57 0.55 90.0 0 0 292.55 394.38
  L 285.74 393.94
  A 0.51 0.51 0.0 0 0 285.20 394.48
  L 285.38 397.65
  A 0.92 0.92 0.0 0 0 286.60 398.46
  Q 287.43 398.17 287.52 398.19
  Z
  M 177.09 386.24
  A 0.57 0.57 0.0 0 0 176.54 386.64
  L 173.41 396.49
  A 0.57 0.57 0.0 0 1 172.33 396.52
  L 168.59 386.46
  A 0.57 0.57 0.0 0 0 168.08 386.09
  L 164.42 385.98
  A 0.57 0.57 0.0 0 0 163.87 386.76
  L 170.58 404.20
  A 0.57 0.57 0.0 0 0 171.13 404.57
  L 174.67 404.45
  A 0.57 0.57 0.0 0 0 175.18 404.08
  L 181.43 387.01
  A 0.57 0.57 0.0 0 0 180.89 386.24
  L 177.09 386.24
  Z
  M 234.80 397.84
  A 0.59 0.59 0.0 0 1 235.39 397.26
  L 239.12 397.28
  A 0.59 0.59 0.0 0 0 239.72 396.67
  L 239.60 393.57
  A 0.59 0.59 0.0 0 0 239.02 393.01
  L 235.33 392.98
  A 0.59 0.59 0.0 0 1 234.74 392.38
  L 234.78 390.90
  A 0.59 0.59 0.0 0 1 235.36 390.33
  L 240.37 390.31
  A 0.59 0.59 0.0 0 0 240.96 389.75
  L 241.11 386.68
  A 0.59 0.59 0.0 0 0 240.51 386.06
  L 230.56 386.23
  A 0.59 0.59 0.0 0 0 229.98 386.82
  L 229.97 403.90
  A 0.59 0.59 0.0 0 0 230.55 404.49
  L 240.50 404.64
  A 0.59 0.59 0.0 0 0 241.10 404.05
  L 241.07 400.94
  A 0.59 0.59 0.0 0 0 240.47 400.35
  L 235.35 400.45
  A 0.59 0.59 0.0 0 1 234.75 399.85
  L 234.80 397.84
  Z
  M 310.23 402.25
  L 310.53 403.72
  Q 310.78 404.90 311.97 404.77
  L 314.51 404.50
  Q 315.55 404.39 315.31 403.37
  C 314.03 397.82 310.80 391.86 308.68 386.48
  Q 308.46 385.92 307.87 385.96
  L 304.70 386.12
  A 0.82 0.81 -80.9 0 0 303.99 386.64
  L 297.44 403.92
  Q 297.23 404.47 297.83 404.52
  L 301.32 404.78
  A 0.95 0.94 -75.8 0 0 302.27 404.21
  L 302.99 402.50
  Q 303.20 401.99 303.75 401.97
  L 309.50 401.69
  Q 310.10 401.66 310.23 402.25
  Z
  M 335.59 395.93
  Q 336.21 395.91 336.28 396.75
  Q 336.58 400.46 336.55 403.59
  A 1.05 1.05 0.0 0 0 337.64 404.65
  L 340.46 404.53
  Q 341.41 404.49 341.35 403.54
  L 340.32 386.39
  Q 340.30 385.98 339.88 386.00
  L 336.22 386.21
  A 1.04 1.02 12.5 0 0 335.40 386.72
  L 331.61 393.47
  A 0.52 0.52 0.0 0 1 330.69 393.45
  L 327.30 386.80
  Q 327.02 386.25 326.41 386.22
  L 322.11 386.03
  Q 321.73 386.01 321.71 386.39
  L 320.71 403.73
  Q 320.66 404.55 321.48 404.56
  L 324.71 404.56
  A 0.83 0.83 0.0 0 0 325.55 403.77
  Q 325.70 400.26 326.02 396.76
  A 0.12 0.06 73.2 0 1 326.03 396.71
  Q 326.67 395.37 327.29 396.44
  Q 328.63 398.72 330.28 401.28
  A 1.06 1.06 0.0 0 0 332.07 401.26
  L 335.19 396.16
  A 0.48 0.46 -73.7 0 1 335.59 395.93
  Z
  M 190.6198 386.7521
  A 0.47 0.47 0.0 0 0 190.1482 386.2837
  L 186.5282 386.2964
  A 0.47 0.47 0.0 0 0 186.0598 386.7680
  L 186.1202 404.0679
  A 0.47 0.47 0.0 0 0 186.5918 404.5363
  L 190.2118 404.5236
  A 0.47 0.47 0.0 0 0 190.6802 404.0520
  L 190.6198 386.7521
  Z
  M 201.9750 386.8056
  A 0.48 0.48 0.0 0 0 201.4941 386.3265
  L 197.4541 386.3335
  A 0.48 0.48 0.0 0 0 196.9750 386.8144
  L 197.0050 404.0344
  A 0.48 0.48 0.0 0 0 197.4859 404.5135
  L 201.5259 404.5065
  A 0.48 0.48 0.0 0 0 202.0050 404.0256
  L 201.9750 386.8056
  Z
  M 208.76 386.95
  L 208.70 403.79
  A 0.78 0.78 0.0 0 0 209.48 404.58
  L 216.37 404.60
  A 8.01 7.99 0.2 0 0 224.41 396.64
  L 224.41 394.22
  A 8.01 7.99 0.2 0 0 216.43 386.20
  L 209.54 386.18
  A 0.78 0.78 0.0 0 0 208.76 386.95
  Z
  M 352.66 400.36
  A 0.58 0.58 0.0 0 1 352.08 399.77
  L 352.10 397.82
  A 0.58 0.58 0.0 0 1 352.69 397.24
  L 356.66 397.28
  A 0.58 0.58 0.0 0 0 357.24 396.73
  L 357.41 393.61
  A 0.58 0.58 0.0 0 0 356.84 393.00
  L 352.63 392.93
  A 0.58 0.58 0.0 0 1 352.06 392.35
  L 352.06 390.87
  A 0.58 0.58 0.0 0 1 352.65 390.29
  L 357.94 390.35
  A 0.58 0.58 0.0 0 0 358.52 389.81
  L 358.69 386.82
  A 0.58 0.58 0.0 0 0 358.11 386.21
  L 348.07 386.23
  A 0.58 0.58 0.0 0 0 347.49 386.82
  L 347.71 403.92
  A 0.58 0.58 0.0 0 0 348.29 404.49
  L 357.92 404.57
  A 0.58 0.58 0.0 0 0 358.50 403.98
  L 358.48 400.95
  A 0.58 0.58 0.0 0 0 357.90 400.38
  L 352.66 400.36
  Z"
/>
<path fill="#ffffff" d="
  M 255.7607 404.7990
  A 9.61 8.85 85.4 0 1 246.1685 395.9298
  A 9.61 8.85 85.4 0 1 254.2193 385.6410
  A 9.61 8.85 85.4 0 1 263.8115 394.5102
  A 9.61 8.85 85.4 0 1 255.7607 404.7990
  Z
  M 255.2496 400.2781
  A 5.14 4.03 86.1 0 0 258.9207 394.8759
  A 5.14 4.03 86.1 0 0 254.5504 390.0219
  A 5.14 4.03 86.1 0 0 250.8793 395.4241
  A 5.14 4.03 86.1 0 0 255.2496 400.2781
  Z"
/>
<path fill="#ffffff" d="
  M 287.52 398.19
  Q 287.43 398.17 286.60 398.46
  A 0.92 0.92 0.0 0 1 285.38 397.65
  L 285.20 394.48
  A 0.51 0.51 0.0 0 1 285.74 393.94
  L 292.55 394.38
  A 0.57 0.55 90.0 0 1 293.07 394.91
  Q 293.24 398.36 292.70 400.97
  C 291.84 405.15 283.92 405.60 280.97 403.31
  C 273.19 397.27 278.66 380.73 290.83 387.08
  A 1.96 1.96 0.0 0 1 291.44 390.05
  Q 290.39 391.36 288.77 391.70
  A 1.07 1.04 57.5 0 1 287.88 391.49
  C 280.46 385.46 280.34 403.92 287.74 399.61
  Q 289.45 398.61 287.52 398.19
  Z"
/>
<path fill="#ffffff" d="
  M 177.09 386.24
  L 180.89 386.24
  A 0.57 0.57 0.0 0 1 181.43 387.01
  L 175.18 404.08
  A 0.57 0.57 0.0 0 1 174.67 404.45
  L 171.13 404.57
  A 0.57 0.57 0.0 0 1 170.58 404.20
  L 163.87 386.76
  A 0.57 0.57 0.0 0 1 164.42 385.98
  L 168.08 386.09
  A 0.57 0.57 0.0 0 1 168.59 386.46
  L 172.33 396.52
  A 0.57 0.57 0.0 0 0 173.41 396.49
  L 176.54 386.64
  A 0.57 0.57 0.0 0 1 177.09 386.24
  Z"
/>
<path fill="#ffffff" d="
  M 234.80 397.84
  L 234.75 399.85
  A 0.59 0.59 0.0 0 0 235.35 400.45
  L 240.47 400.35
  A 0.59 0.59 0.0 0 1 241.07 400.94
  L 241.10 404.05
  A 0.59 0.59 0.0 0 1 240.50 404.64
  L 230.55 404.49
  A 0.59 0.59 0.0 0 1 229.97 403.90
  L 229.98 386.82
  A 0.59 0.59 0.0 0 1 230.56 386.23
  L 240.51 386.06
  A 0.59 0.59 0.0 0 1 241.11 386.68
  L 240.96 389.75
  A 0.59 0.59 0.0 0 1 240.37 390.31
  L 235.36 390.33
  A 0.59 0.59 0.0 0 0 234.78 390.90
  L 234.74 392.38
  A 0.59 0.59 0.0 0 0 235.33 392.98
  L 239.02 393.01
  A 0.59 0.59 0.0 0 1 239.60 393.57
  L 239.72 396.67
  A 0.59 0.59 0.0 0 1 239.12 397.28
  L 235.39 397.26
  A 0.59 0.59 0.0 0 0 234.80 397.84
  Z"
/>
<path fill="#ffffff" d="
  M 309.50 401.69
  L 303.75 401.97
  Q 303.20 401.99 302.99 402.50
  L 302.27 404.21
  A 0.95 0.94 -75.8 0 1 301.32 404.78
  L 297.83 404.52
  Q 297.23 404.47 297.44 403.92
  L 303.99 386.64
  A 0.82 0.81 -80.9 0 1 304.70 386.12
  L 307.87 385.96
  Q 308.46 385.92 308.68 386.48
  C 310.80 391.86 314.03 397.82 315.31 403.37
  Q 315.55 404.39 314.51 404.50
  L 311.97 404.77
  Q 310.78 404.90 310.53 403.72
  L 310.23 402.25
  Q 310.10 401.66 309.50 401.69
  Z
  M 305.49 398.18
  L 307.31 398.24
  A 0.49 0.49 0.0 0 0 307.81 397.76
  L 307.82 397.61
  A 3.44 1.26 -88.3 0 0 306.66 394.14
  L 306.38 394.13
  A 3.44 1.26 -88.3 0 0 305.02 397.53
  L 305.01 397.68
  A 0.49 0.49 0.0 0 0 305.49 398.18
  Z"
/>
<path fill="#ffffff" d="
  M 335.59 395.93
  A 0.48 0.46 -73.7 0 0 335.19 396.16
  L 332.07 401.26
  A 1.06 1.06 0.0 0 1 330.28 401.28
  Q 328.63 398.72 327.29 396.44
  Q 326.67 395.37 326.03 396.71
  A 0.12 0.06 73.2 0 0 326.02 396.76
  Q 325.70 400.26 325.55 403.77
  A 0.83 0.83 0.0 0 1 324.71 404.56
  L 321.48 404.56
  Q 320.66 404.55 320.71 403.73
  L 321.71 386.39
  Q 321.73 386.01 322.11 386.03
  L 326.41 386.22
  Q 327.02 386.25 327.30 386.80
  L 330.69 393.45
  A 0.52 0.52 0.0 0 0 331.61 393.47
  L 335.40 386.72
  A 1.04 1.02 12.5 0 1 336.22 386.21
  L 339.88 386.00
  Q 340.30 385.98 340.32 386.39
  L 341.35 403.54
  Q 341.41 404.49 340.46 404.53
  L 337.64 404.65
  A 1.05 1.05 0.0 0 1 336.55 403.59
  Q 336.58 400.46 336.28 396.75
  Q 336.21 395.91 335.59 395.93
  Z"
/>
<rect fill="#ffffff" x="-2.28" y="-9.12" transform="translate(188.37,395.41) rotate(-0.2)" width="4.56" height="18.24" rx="0.47"/>
<rect fill="#ffffff" x="-2.50" y="-9.09" transform="translate(199.49,395.42) rotate(-0.1)" width="5.00" height="18.18" rx="0.48"/>
<path fill="#ffffff" d="
  M 208.76 386.95
  A 0.78 0.78 0.0 0 1 209.54 386.18
  L 216.43 386.20
  A 8.01 7.99 0.2 0 1 224.41 394.22
  L 224.41 396.64
  A 8.01 7.99 0.2 0 1 216.37 404.60
  L 209.48 404.58
  A 0.78 0.78 0.0 0 1 208.70 403.79
  L 208.76 386.95
  Z
  M 213.49 391.01
  L 213.45 399.55
  A 0.71 0.71 0.0 0 0 214.15 400.27
  L 215.50 400.27
  A 4.29 4.24 -89.7 0 0 219.77 396.01
  L 219.77 394.63
  A 4.29 4.24 -89.7 0 0 215.56 390.31
  L 214.21 390.31
  A 0.71 0.71 0.0 0 0 213.49 391.01
  Z"
/>
<path fill="#ffffff" d="
  M 352.66 400.36
  L 357.90 400.38
  A 0.58 0.58 0.0 0 1 358.48 400.95
  L 358.50 403.98
  A 0.58 0.58 0.0 0 1 357.92 404.57
  L 348.29 404.49
  A 0.58 0.58 0.0 0 1 347.71 403.92
  L 347.49 386.82
  A 0.58 0.58 0.0 0 1 348.07 386.23
  L 358.11 386.21
  A 0.58 0.58 0.0 0 1 358.69 386.82
  L 358.52 389.81
  A 0.58 0.58 0.0 0 1 357.94 390.35
  L 352.65 390.29
  A 0.58 0.58 0.0 0 0 352.06 390.87
  L 352.06 392.35
  A 0.58 0.58 0.0 0 0 352.63 392.93
  L 356.84 393.00
  A 0.58 0.58 0.0 0 1 357.41 393.61
  L 357.24 396.73
  A 0.58 0.58 0.0 0 1 356.66 397.28
  L 352.69 397.24
  A 0.58 0.58 0.0 0 0 352.10 397.82
  L 352.08 399.77
  A 0.58 0.58 0.0 0 0 352.66 400.36
  Z"
/>
<ellipse fill="#fb2a4b" cx="0.00" cy="0.00" transform="translate(254.90,395.15) rotate(86.1)" rx="5.14" ry="4.03"/>
<path fill="#fb2a4b" d="
  M 213.49 391.01
  A 0.71 0.71 0.0 0 1 214.21 390.31
  L 215.56 390.31
  A 4.29 4.24 -89.7 0 1 219.77 394.63
  L 219.77 396.01
  A 4.29 4.24 -89.7 0 1 215.50 400.27
  L 214.15 400.27
  A 0.71 0.71 0.0 0 1 213.45 399.55
  L 213.49 391.01
  Z"
/>
<path fill="#b00a31" d="
  M 305.49 398.18
  A 0.49 0.49 0.0 0 1 305.01 397.68
  L 305.02 397.53
  A 3.44 1.26 -88.3 0 1 306.38 394.13
  L 306.66 394.14
  A 3.44 1.26 -88.3 0 1 307.82 397.61
  L 307.81 397.76
  A 0.49 0.49 0.0 0 1 307.31 398.24
  L 305.49 398.18
  Z"
/>
</svg>
